<svg xmlns="http://www.w3.org/2000/svg" version="1.1" xmlnsxlink="http://www.w3.org/1999/xlink" xmlnssvgjs="http://svgjs.dev/svgjs" viewBox="0 0 800 800"><g stroke="hsl(0, 0%, 100%)" fill="none" stroke-linecap="round"><circle r="363" cx="400" cy="400" stroke-width="9" stroke-dasharray="25 16" stroke-dashoffset="25" transform="rotate(191, 400, 400)" opacity="0.05"></circle><circle r="346.5" cx="400" cy="400" stroke-width="8" stroke-dasharray="17 30" stroke-dashoffset="25" transform="rotate(350, 400, 400)" opacity="0.10"></circle><circle r="330" cx="400" cy="400" stroke-width="8" stroke-dasharray="30 23" stroke-dashoffset="25" transform="rotate(80, 400, 400)" opacity="0.14"></circle><circle r="313.5" cx="400" cy="400" stroke-width="8" stroke-dasharray="19 36" stroke-dashoffset="25" transform="rotate(14, 400, 400)" opacity="0.19"></circle><circle r="297" cx="400" cy="400" stroke-width="7" stroke-dasharray="40 38" stroke-dashoffset="25" transform="rotate(47, 400, 400)" opacity="0.23"></circle><circle r="280.5" cx="400" cy="400" stroke-width="7" stroke-dasharray="21 15" stroke-dashoffset="25" transform="rotate(111, 400, 400)" opacity="0.28"></circle><circle r="264" cx="400" cy="400" stroke-width="7" stroke-dasharray="38 52" stroke-dashoffset="25" transform="rotate(182, 400, 400)" opacity="0.32"></circle><circle r="247.5" cx="400" cy="400" stroke-width="7" stroke-dasharray="47 37" stroke-dashoffset="25" transform="rotate(7, 400, 400)" opacity="0.37"></circle><circle r="231" cx="400" cy="400" stroke-width="6" stroke-dasharray="43 45" stroke-dashoffset="25" transform="rotate(173, 400, 400)" opacity="0.41"></circle><circle r="214.5" cx="400" cy="400" stroke-width="6" stroke-dasharray="22 50" stroke-dashoffset="25" transform="rotate(172, 400, 400)" opacity="0.46"></circle><circle r="198" cx="400" cy="400" stroke-width="6" stroke-dasharray="47 17" stroke-dashoffset="25" transform="rotate(268, 400, 400)" opacity="0.50"></circle><circle r="181.5" cx="400" cy="400" stroke-width="5" stroke-dasharray="13 35" stroke-dashoffset="25" transform="rotate(278, 400, 400)" opacity="0.55"></circle><circle r="165" cx="400" cy="400" stroke-width="5" stroke-dasharray="35 44" stroke-dashoffset="25" transform="rotate(355, 400, 400)" opacity="0.59"></circle><circle r="148.5" cx="400" cy="400" stroke-width="5" stroke-dasharray="30 36" stroke-dashoffset="25" transform="rotate(41, 400, 400)" opacity="0.64"></circle><circle r="132" cx="400" cy="400" stroke-width="5" stroke-dasharray="52 19" stroke-dashoffset="25" transform="rotate(244, 400, 400)" opacity="0.68"></circle><circle r="115.5" cx="400" cy="400" stroke-width="4" stroke-dasharray="17 33" stroke-dashoffset="25" transform="rotate(20, 400, 400)" opacity="0.73"></circle><circle r="99" cx="400" cy="400" stroke-width="4" stroke-dasharray="27 51" stroke-dashoffset="25" transform="rotate(295, 400, 400)" opacity="0.77"></circle><circle r="82.5" cx="400" cy="400" stroke-width="4" stroke-dasharray="32 41" stroke-dashoffset="25" transform="rotate(328, 400, 400)" opacity="0.82"></circle><circle r="66" cx="400" cy="400" stroke-width="3" stroke-dasharray="27 17" stroke-dashoffset="25" transform="rotate(193, 400, 400)" opacity="0.86"></circle><circle r="49.5" cx="400" cy="400" stroke-width="3" stroke-dasharray="16 52" stroke-dashoffset="25" transform="rotate(246, 400, 400)" opacity="0.91"></circle><circle r="33" cx="400" cy="400" stroke-width="3" stroke-dasharray="18 51" stroke-dashoffset="25" transform="rotate(57, 400, 400)" opacity="0.95"></circle><circle r="16.5" cx="400" cy="400" stroke-width="3" stroke-dasharray="21 22" stroke-dashoffset="25" transform="rotate(234, 400, 400)" opacity="1.00"></circle></g></svg>